# xmcd
#
# Track frame offsets:
#	150
#	18442
#	36997
#	60357
#	75797
#	98467
#	110758
#	124521
#	142128
#	164720
#	179473
#	199420
#	212306
#	229408
#	248078
#	266298
#	285536
#	313753
#
# Disc length: 4398
#
# Revision: 2
# Processed by: cddbd v1.5.1PL0 Copyright (c) Steve Scherf et al.
# Submitted via: EasyCDDAExtractor 5.0.7
# Normalized: r1:DSETVAR1
#
DISCID=f8112c12
DTITLE=Various Artist - Shout, Sister, Shout! A Tribute To Sister Rosetta Tharpe
DYEAR=2003
DGENRE=Gospel
TTITLE0=Joan Osborne w/The Holmes Brothers - Nobody's Fault But Mine
TTITLE1=Maria Muldaur w/Borrnie Raitt on Lead Guitar - My Journey To The Sky
TTITLE2=Toshi Reagon - Rock Me
TTITLE3=Odetta w/The Holmes Brothers - Two Little Fishes And Five Loaves Of Bread
TTITLE4=Michelle Shocked - Strange Things Happen Every Day
TTITLE5=Janis Ian - This Train
TTITLE6=Maria Muldaur, Marcia Ball, Angela Strehli, Tracy Nelson - Shout, Sister, Shout!
TTITLE7=Phoebe Snow w/The Holmes Brothers - Beams Of Heaven
TTITLE8=Sweet Honey In The Rock - Precious Memories
TTITLE9=Marcia Ball, background vocals: Tracy Nelson, Maria  Muldaur and Angela Strehli - I Want A Tall Skinny Papa
TTITLE10=Victoria Williams w/The Holmes Brothers - My Lord And I
TTITLE11=Rory Block - Stand By Me
TTITLE12=Maria Muldaur and Tracy Nelson - Up And Above My Head
TTITLE13=Joanna Connor - Don't Take Everybody To Be Your Friend
TTITLE14=Angela Strehli - Thats All
TTITLE15=Maria Muldaur - I Looked Down The Line (And I Wondered)
TTITLE16=Marie Knight - Didn't It Rain
TTITLE17=Sister Rosetta Tharpe - Down By The Riverside
EXTD=
EXTT0=
EXTT1=
EXTT2=
EXTT3=
EXTT4=
EXTT5=
EXTT6=
EXTT7=
EXTT8=
EXTT9=
EXTT10=
EXTT11=
EXTT12=
EXTT13=
EXTT14=
EXTT15=
EXTT16=
EXTT17=
PLAYORDER=
